HIERARCHY
ROOT Hips
{
	OFFSET 0.000000 97.167313 0.000000
	CHANNELS 6 Xposition Yposition Zposition Xrotation Yrotation Zrotation
	JOINT Spine
	{
		OFFSET 0.000000 13.784798 0.064400
		CHANNELS 3 Xrotation Yrotation Zrotation
		JOINT Spine1
		{
			OFFSET 0.000000 12.037903 0.404700
			CHANNELS 3 Xrotation Yrotation Zrotation
			JOINT Spine2
			{
				OFFSET 0.000000 17.795601 0.420200
				CHANNELS 3 Xrotation Yrotation Zrotation
				JOINT Neck
				{
					OFFSET 0.000000 39.131302 11.954600
					CHANNELS 3 Xrotation Yrotation Zrotation
					JOINT Head
					{
						OFFSET 0.000000 14.456192 15.627699
						CHANNELS 3 Xrotation Yrotation Zrotation
						JOINT HeadTop_End
						{
							OFFSET 0.000000 15.703506 7.603401
							CHANNELS 3 Xrotation Yrotation Zrotation
							End Site
							{
								OFFSET 0.000000 17.447403 0.000000
							}
						}
					}
				}
				JOINT LeftShoulder
				{
					OFFSET 17.399500 24.608795 1.168800
					CHANNELS 3 Xrotation Yrotation Zrotation
					JOINT LeftArm
					{
						OFFSET 18.980635 5.765305 1.818600
						CHANNELS 3 Xrotation Yrotation Zrotation
						JOINT LeftForeArm
						{
							OFFSET 49.290169 0.000000 0.000000
							CHANNELS 3 Xrotation Yrotation Zrotation
							JOINT LeftHand
							{
								OFFSET 31.562012 0.000000 0.000000
								CHANNELS 3 Xrotation Yrotation Zrotation
								JOINT LeftHandThumb1
								{
									OFFSET 6.133995 -4.388519 7.076070
									CHANNELS 3 Xrotation Yrotation Zrotation
									JOINT LeftHandThumb2
									{
										OFFSET 6.037666 -3.485840 3.485847
										CHANNELS 3 Xrotation Yrotation Zrotation
										JOINT LeftHandThumb3
										{
											OFFSET 6.496506 -3.750763 3.750761
											CHANNELS 3 Xrotation Yrotation Zrotation
											JOINT LeftHandThumb4
											{
												OFFSET 5.616882 -3.242905 3.242910
												CHANNELS 3 Xrotation Yrotation Zrotation
												End Site
												{
													OFFSET -1.254608 7.132141 0.375429
												}
											}
										}
									}
								}
								JOINT LeftHandPinky1
								{
									OFFSET 18.920792 -0.453171 -11.426712
									CHANNELS 3 Xrotation Yrotation Zrotation
									JOINT LeftHandPinky2
									{
										OFFSET 4.919586 0.000000 0.000000
										CHANNELS 3 Xrotation Yrotation Zrotation
										JOINT LeftHandPinky3
										{
											OFFSET 5.233047 0.000000 0.000000
											CHANNELS 3 Xrotation Yrotation Zrotation
											JOINT LeftHandPinky4
											{
												OFFSET 5.571716 0.000000 0.000000
												CHANNELS 3 Xrotation Yrotation Zrotation
												End Site
												{
													OFFSET -3.459808 4.342407 -0.466164
												}
											}
										}
									}
								}
								JOINT LeftHandRing1
								{
									OFFSET 22.726120 -0.094986 -6.500475
									CHANNELS 3 Xrotation Yrotation Zrotation
									JOINT LeftHandRing2
									{
										OFFSET 6.408615 0.000000 0.000000
										CHANNELS 3 Xrotation Yrotation Zrotation
										JOINT LeftHandRing3
										{
											OFFSET 6.150223 0.000000 0.000000
											CHANNELS 3 Xrotation Yrotation Zrotation
											JOINT LeftHandRing4
											{
												OFFSET 6.145386 0.000000 0.000000
												CHANNELS 3 Xrotation Yrotation Zrotation
												End Site
												{
													OFFSET -3.671402 4.923981 -0.202372
												}
											}
										}
									}
								}
								JOINT LeftHandMiddle1
								{
									OFFSET 23.373947 0.000000 0.000001
									CHANNELS 3 Xrotation Yrotation Zrotation
									JOINT LeftHandMiddle2
									{
										OFFSET 6.996567 0.000000 0.000000
										CHANNELS 3 Xrotation Yrotation Zrotation
										JOINT LeftHandMiddle3
										{
											OFFSET 7.015945 0.000000 0.000000
											CHANNELS 3 Xrotation Yrotation Zrotation
											JOINT LeftHandMiddle4
											{
												OFFSET 7.721573 0.000000 0.000000
												CHANNELS 3 Xrotation Yrotation Zrotation
												End Site
												{
													OFFSET -4.651108 6.158463 0.251582
												}
											}
										}
									}
								}
								JOINT LeftHandIndex1
								{
									OFFSET 21.310577 -0.490082 6.209344
									CHANNELS 3 Xrotation Yrotation Zrotation
									JOINT LeftHandIndex2
									{
										OFFSET 7.536453 0.000000 0.000000
										CHANNELS 3 Xrotation Yrotation Zrotation
										JOINT LeftHandIndex3
										{
											OFFSET 7.512344 0.000000 0.000000
											CHANNELS 3 Xrotation Yrotation Zrotation
											JOINT LeftHandIndex4
											{
												OFFSET 10.212402 0.000000 0.000001
												CHANNELS 3 Xrotation Yrotation Zrotation
												End Site
												{
													OFFSET -5.180801 8.690506 1.388433
												}
											}
										}
									}
								}
							}
						}
					}
				}
				JOINT RightShoulder
				{
					OFFSET -17.399500 24.608795 1.168800
					CHANNELS 3 Xrotation Yrotation Zrotation
					JOINT RightArm
					{
						OFFSET -18.980635 5.765305 1.818600
						CHANNELS 3 Xrotation Yrotation Zrotation
						JOINT RightForeArm
						{
							OFFSET -49.290169 0.000000 0.000000
							CHANNELS 3 Xrotation Yrotation Zrotation
							JOINT RightHand
							{
								OFFSET -31.562012 0.000000 0.000000
								CHANNELS 3 Xrotation Yrotation Zrotation
								JOINT RightHandThumb1
								{
									OFFSET -6.133995 -4.388519 7.076070
									CHANNELS 3 Xrotation Yrotation Zrotation
									JOINT RightHandThumb2
									{
										OFFSET -6.037666 -3.485840 3.485847
										CHANNELS 3 Xrotation Yrotation Zrotation
										JOINT RightHandThumb3
										{
											OFFSET -6.496506 -3.750763 3.750761
											CHANNELS 3 Xrotation Yrotation Zrotation
											JOINT RightHandThumb4
											{
												OFFSET -5.616882 -3.242905 3.242910
												CHANNELS 3 Xrotation Yrotation Zrotation
												End Site
												{
													OFFSET 1.254608 7.132141 0.375429
												}
											}
										}
									}
								}
								JOINT RightHandIndex1
								{
									OFFSET -21.310577 -0.490082 6.209344
									CHANNELS 3 Xrotation Yrotation Zrotation
									JOINT RightHandIndex2
									{
										OFFSET -7.536453 0.000000 0.000000
										CHANNELS 3 Xrotation Yrotation Zrotation
										JOINT RightHandIndex3
										{
											OFFSET -7.512344 0.000000 0.000000
											CHANNELS 3 Xrotation Yrotation Zrotation
											JOINT RightHandIndex4
											{
												OFFSET -10.212402 0.000000 0.000001
												CHANNELS 3 Xrotation Yrotation Zrotation
												End Site
												{
													OFFSET 5.180801 8.690506 1.388433
												}
											}
										}
									}
								}
								JOINT RightHandMiddle1
								{
									OFFSET -23.373947 0.000000 0.000001
									CHANNELS 3 Xrotation Yrotation Zrotation
									JOINT RightHandMiddle2
									{
										OFFSET -6.996567 0.000000 0.000000
										CHANNELS 3 Xrotation Yrotation Zrotation
										JOINT RightHandMiddle3
										{
											OFFSET -7.015945 0.000000 0.000000
											CHANNELS 3 Xrotation Yrotation Zrotation
											JOINT RightHandMiddle4
											{
												OFFSET -7.721573 0.000000 0.000000
												CHANNELS 3 Xrotation Yrotation Zrotation
												End Site
												{
													OFFSET 4.651108 6.158463 0.251582
												}
											}
										}
									}
								}
								JOINT RightHandRing1
								{
									OFFSET -22.726120 -0.094986 -6.500475
									CHANNELS 3 Xrotation Yrotation Zrotation
									JOINT RightHandRing2
									{
										OFFSET -6.408615 0.000000 0.000000
										CHANNELS 3 Xrotation Yrotation Zrotation
										JOINT RightHandRing3
										{
											OFFSET -6.150223 0.000000 0.000000
											CHANNELS 3 Xrotation Yrotation Zrotation
											JOINT RightHandRing4
											{
												OFFSET -6.145386 0.000000 0.000000
												CHANNELS 3 Xrotation Yrotation Zrotation
												End Site
												{
													OFFSET 3.671402 4.923981 -0.202372
												}
											}
										}
									}
								}
								JOINT RightHandPinky1
								{
									OFFSET -18.920792 -0.453171 -11.426712
									CHANNELS 3 Xrotation Yrotation Zrotation
									JOINT RightHandPinky2
									{
										OFFSET -4.919586 0.000000 0.000000
										CHANNELS 3 Xrotation Yrotation Zrotation
										JOINT RightHandPinky3
										{
											OFFSET -5.233047 0.000000 0.000000
											CHANNELS 3 Xrotation Yrotation Zrotation
											JOINT RightHandPinky4
											{
												OFFSET -5.571716 0.000000 0.000000
												CHANNELS 3 Xrotation Yrotation Zrotation
												End Site
												{
													OFFSET 3.459808 4.342407 -0.466164
												}
											}
										}
									}
								}
							}
						}
					}
				}
			}
		}
	}
	JOINT LeftUpLeg
	{
		OFFSET 19.899099 -7.885101 -3.429500
		CHANNELS 3 Xrotation Yrotation Zrotation
		JOINT LeftLeg
		{
			OFFSET 1.745560 -36.997807 10.304700
			CHANNELS 3 Xrotation Yrotation Zrotation
			JOINT LeftFoot
			{
				OFFSET -1.745558 -29.803308 -13.615400
				CHANNELS 3 Xrotation Yrotation Zrotation
				JOINT LeftToeBase
				{
					OFFSET 1.181900 -18.539904 15.226099
					CHANNELS 3 Xrotation Yrotation Zrotation
					JOINT LeftToe_End
					{
						OFFSET -0.863701 1.402801 16.534700
						CHANNELS 3 Xrotation Yrotation Zrotation
						End Site
						{
							OFFSET 0.000000 16.616566 0.000000
						}
					}
				}
			}
		}
	}
	JOINT RightUpLeg
	{
		OFFSET -19.899099 -7.885101 -3.429500
		CHANNELS 3 Xrotation Yrotation Zrotation
		JOINT RightLeg
		{
			OFFSET -1.745560 -36.997807 10.304700
			CHANNELS 3 Xrotation Yrotation Zrotation
			JOINT RightFoot
			{
				OFFSET 1.745558 -29.803308 -13.615400
				CHANNELS 3 Xrotation Yrotation Zrotation
				JOINT RightToeBase
				{
					OFFSET -1.181900 -18.539904 15.226099
					CHANNELS 3 Xrotation Yrotation Zrotation
					JOINT RightToe_End
					{
						OFFSET 0.863701 1.402801 16.534700
						CHANNELS 3 Xrotation Yrotation Zrotation
						End Site
						{
							OFFSET 0.000000 16.616566 0.000000
						}
					}
				}
			}
		}
	}
}
MOTION
Frames: 4
Frame Time: 0.033333
-1.192631 67.577026 9.854013 27.135192 -32.604922 12.438819 30.338611 0.372428 -5.499022 -1.865091 -5.162216 1.378201 -1.486016 -5.055351 2.054534 -9.355011 19.405927 -0.788006 -18.955049 29.093887 -2.221405 0.000001 -0.000000 0.000000 12.754755 -20.510775 22.144395 -33.802220 -2.253654 -6.607903 -26.530533 -51.279148 1.205100 -1.913854 -0.220436 11.355441 -4.212043 -7.549022 8.222295 3.479962 20.076472 -1.637636 0.825065 1.234124 2.629773 0.000004 0.000001 -0.000002 -5.600657 7.947230 -13.412944 0.224455 0.284918 -46.588263 0.271280 0.250879 -46.286915 0.000002 0.000003 -0.000000 6.345023 3.553024 -15.334617 0.039166 0.322403 -30.125471 0.420874 0.807714 -42.140887 -0.000003 -0.000001 -0.000000 8.701273 0.252440 -0.436337 0.231456 0.660993 -29.901902 0.445933 0.224150 -44.356953 0.000002 0.000000 0.000004 13.107656 -1.389780 11.525825 -0.167540 0.303457 -31.105600 -0.135193 0.299208 -32.256323 -0.000000 0.000003 0.000001 9.102047 4.643303 5.876530 -94.862728 -39.152905 -17.132788 62.483622 140.137027 -38.621301 0.196578 14.674930 -19.658763 -2.894498 9.661464 -10.609778 2.501959 -17.503400 2.627339 3.342413 -13.253700 -8.262819 0.000002 -0.000001 0.000002 19.365379 11.464491 -14.237322 -0.118656 -0.314176 18.035567 -0.089898 -0.286628 23.256639 -0.000003 0.000000 0.000003 4.548118 1.890116 -5.332201 0.356515 -0.472182 26.890381 0.456834 0.148874 39.044930 -0.000003 -0.000002 -0.000007 -6.900823 -10.887281 4.759349 0.111847 -0.093036 26.155868 0.451236 -0.473519 33.265074 -0.000002 0.000001 -0.000003 -19.521464 -20.358123 5.449689 0.232327 -0.085862 36.844451 0.242869 -0.043465 36.471738 -0.000003 0.000002 0.000001 -86.367380 -10.593408 33.115510 88.826754 -1.542437 -14.435955 13.890242 -13.230354 0.089719 -5.190956 0.858278 0.911795 -0.000002 0.000000 -0.000001 -63.711417 7.850990 8.830676 72.074069 -3.215795 1.772004 -31.013147 0.959206 1.959797 -1.227701 -0.996857 0.291654 -0.000000 -0.000002 0.000000 
-2.076420 66.919090 15.445171 26.563502 -32.635832 14.085377 28.148859 -0.280648 -5.842267 -1.158985 -5.513693 0.902358 -0.758504 -5.513118 1.514474 -8.766895 20.682163 -1.289526 -18.415419 28.723114 -1.869916 -0.000000 0.000000 -0.000000 12.477875 -20.381812 20.364790 -33.892061 -1.448974 -6.344986 -22.050431 -51.341518 4.549843 -4.105739 1.112089 13.043932 -4.152552 -7.674403 8.183107 3.410642 19.788796 -1.780537 0.676331 0.708866 2.378054 0.000006 0.000001 -0.000003 -5.526235 7.876590 -13.294389 0.222358 0.283246 -46.055976 0.263940 0.248581 -44.704592 0.000003 -0.000003 0.000001 6.331998 3.541667 -15.115181 0.038924 0.319276 -29.656128 0.412566 0.799073 -41.316477 -0.000001 0.000003 0.000004 8.703630 0.246172 0.395900 0.229778 0.660025 -29.602941 0.437382 0.220502 -42.649559 -0.000000 -0.000002 -0.000001 13.108913 -1.361702 11.895063 -0.167983 0.303206 -30.684024 -0.138793 0.300100 -31.281098 0.000001 0.000002 -0.000003 9.239173 3.902959 6.382633 -93.816002 -36.606392 -15.729690 61.744302 140.753438 -37.261646 -0.098216 12.531716 -20.871465 -2.871562 9.855534 -10.491336 2.395821 -17.176251 2.745121 2.308126 -12.178401 -8.415719 -0.000001 0.000001 -0.000001 19.346704 11.390599 -14.482607 -0.119199 -0.313693 17.462448 -0.125407 -0.267551 21.801798 -0.000001 -0.000001 -0.000001 4.579622 1.877454 -4.977403 0.349574 -0.467359 25.604518 0.449133 0.164228 38.488440 0.000000 0.000001 -0.000004 -6.816151 -10.844046 4.604644 0.133498 -0.088964 25.546139 0.402403 -0.444054 32.967318 -0.000001 0.000001 -0.000003 -18.966121 -20.144864 4.616241 0.231455 -0.084813 36.580666 0.240511 -0.041687 35.909866 -0.000000 -0.000000 0.000002 -92.560231 -6.789340 32.986901 78.745347 -7.298408 -13.896694 12.757368 -4.957617 -2.254957 -0.343251 0.932403 -0.307151 -0.000001 -0.000001 0.000001 -61.602200 9.719070 6.547931 77.636493 -0.629327 1.160570 -32.269437 0.211808 0.860401 -6.466458 -1.691666 0.599137 -0.000000 0.000001 -0.000000 
-2.630947 66.235916 20.166361 26.247563 -32.607238 15.594444 25.612390 -0.828145 -5.542042 -0.437627 -5.817409 0.104645 -0.068824 -5.941425 0.627403 -8.138745 21.800219 -1.629308 -17.895927 28.247646 -1.508193 0.000000 0.000000 -0.000000 12.319318 -20.411353 18.782612 -33.882424 -0.802368 -5.949406 -19.958622 -51.186889 6.147500 -5.221552 2.216533 14.816886 -4.089042 -7.818185 8.138504 3.330343 19.457735 -1.941379 0.512240 0.117438 2.097310 -0.000001 0.000001 0.000000 -5.445751 7.798113 -13.157518 0.220094 0.281302 -45.463146 0.255828 0.247622 -42.950050 -0.000000 -0.000002 -0.000001 6.317431 3.528949 -14.868562 0.038779 0.315801 -29.132697 0.403246 0.789201 -40.398742 -0.000002 -0.000001 -0.000000 8.703567 0.237530 1.321945 0.227932 0.658879 -29.267432 0.430200 0.220102 -40.752150 0.000000 0.000001 0.000004 13.114127 -1.330146 12.309699 -0.168518 0.302932 -30.210487 -0.142853 0.295765 -30.184078 -0.000001 0.000001 -0.000001 9.404579 3.289935 6.743439 -92.456446 -33.843147 -13.593104 60.328800 140.969681 -35.464439 -0.524859 9.747915 -22.452273 -2.844837 10.081441 -10.354041 2.279750 -16.809444 2.882254 1.148119 -10.962413 -8.529688 0.000001 -0.000002 0.000002 19.322907 11.315833 -14.805996 -0.119793 -0.313104 16.820075 -0.163787 -0.244371 20.175761 -0.000000 0.000000 0.000006 4.611526 1.868608 -4.633566 0.351266 -0.461702 24.157553 0.429005 0.175914 37.862559 0.000001 0.000002 -0.000008 -6.721186 -10.794264 4.428392 0.156944 -0.093710 24.856576 0.348496 -0.410574 32.631123 0.000001 -0.000002 -0.000003 -18.351772 -19.929840 3.684236 0.230460 -0.083665 36.284704 0.237873 -0.039665 35.279587 -0.000001 -0.000001 0.000000 -96.311357 -1.400691 34.362350 69.433613 -7.960153 -11.527519 10.291460 -5.633812 -4.118914 -0.343178 0.932370 -0.307159 -0.000000 0.000000 0.000000 -59.456230 8.479530 4.899102 82.238975 1.043706 -2.381094 -33.423237 -0.196036 -0.031969 -10.967982 -2.308003 1.643552 -0.000000 -0.000001 -0.000000 
-2.915787 65.654846 24.372702 26.552319 -32.907551 16.863419 22.616218 -1.066441 -4.598707 0.360260 -5.921365 -0.974802 0.627612 -6.165487 -0.587453 -7.602429 22.554736 -1.799932 -17.515965 27.568165 -0.953749 -0.000002 -0.000000 -0.000001 12.130511 -20.418050 17.590809 -33.680998 -0.251246 -5.475561 -19.480651 -51.086297 6.453619 -5.648856 2.947493 16.108950 -4.027060 -7.962104 8.094278 3.250057 19.125899 -2.101164 0.339929 -0.488713 1.806790 -0.000000 0.000001 -0.000001 -5.369979 7.710706 -12.983437 0.217732 0.279239 -44.833806 0.247432 0.246264 -41.084131 0.000001 -0.000003 -0.000005 6.300348 3.513909 -14.578433 0.038628 0.312065 -28.578560 0.393353 0.779436 -39.422657 0.000004 -0.000002 0.000003 8.703719 0.228592 2.301531 0.225986 0.657646 -28.919663 0.421920 0.223458 -38.791452 -0.000000 -0.000001 0.000001 13.119578 -1.296564 12.750271 -0.169025 0.302612 -29.736980 -0.147087 0.291829 -29.056639 -0.000001 0.000003 0.000002 9.539226 2.667003 6.877451 -90.800016 -31.226515 -10.619704 58.204297 140.789924 -33.178928 -1.044803 6.572178 -24.335964 -2.817558 10.312246 -10.214503 2.161659 -16.436920 3.021609 -0.041741 -9.695443 -8.577449 0.000004 -0.000003 -0.000000 19.309597 11.280320 -14.989113 -0.120387 -0.312523 16.154617 -0.201553 -0.218348 18.481315 -0.000001 0.000006 0.000001 4.643038 1.863707 -4.183233 0.353034 -0.461997 22.637305 0.408941 0.188201 37.197046 0.000002 0.000002 -0.000008 -6.626480 -10.740849 4.239581 0.180146 -0.103404 24.117178 0.294285 -0.375983 32.269956 0.000003 -0.000001 -0.000005 -17.744780 -19.715768 2.691955 0.229461 -0.082499 35.967271 0.235065 -0.037445 34.602493 0.000003 -0.000004 -0.000002 -98.743574 3.270593 35.631055 58.370510 -8.319079 -8.287644 10.294762 -5.391822 -7.726202 -0.343161 0.932377 -0.307130 0.000000 -0.000002 -0.000001 -57.062488 5.282409 4.232033 85.415887 3.113618 -7.385430 -34.832787 -1.583114 -1.557871 -14.415408 -2.759805 2.307139 -0.000000 0.000000 -0.000000 
